
<svg width="81" height="78" viewBox="0 0 81 78" fill="none" xmlns="http://www.w3.org/2000/svg">
<g clip-path="url(#clip0_251_1838)">
<path d="M27.0195 53.93V69.03L40.0995 76.58L53.1795 69.03V53.93L40.0995 46.37L27.0195 53.93Z" fill="#FEB51E" stroke="white" stroke-miterlimit="10"/>
<path d="M53.46 8.12996V23.23L66.54 30.78L79.61 23.23V8.12996L66.54 0.579956L53.46 8.12996Z" fill="#FEB51E" stroke="white" stroke-miterlimit="10"/>
<path d="M27.0195 8.12996V23.23L40.0995 30.78L53.1795 23.23V8.12996L40.0995 0.579956L27.0195 8.12996Z" fill="#FEB51E" stroke="white" stroke-miterlimit="10"/>
<path d="M0.5 8.12996V23.23L13.58 30.78L26.66 23.23V8.12996L13.58 0.579956L0.5 8.12996Z" fill="#FEB51E" stroke="white" stroke-miterlimit="10"/>
<path d="M40.2598 31.01V46.12L53.3398 53.67L66.4198 46.12V31.01L53.3398 23.46L40.2598 31.01Z" fill="#FEB51E" stroke="white" stroke-miterlimit="10"/>
<path d="M13.8604 31.01V46.12L26.9404 53.67L40.0204 46.12V31.01L26.9404 23.46L13.8604 31.01Z" fill="#FEB51E" stroke="white" stroke-miterlimit="10"/>
<path d="M18.3201 10.86L15.0601 19.88H12.0901L8.83008 10.86H12.0701L13.6501 16.19L15.2201 10.86H18.3201V10.86Z" fill="#41014A"/>
<path d="M30.79 34.3999V42.9699H28.52V39.6299H25.52V42.9699H23.25V34.3999H25.52V37.6099H28.52V34.3999H30.79Z" fill="#41014A"/>
<path d="M57.21 39.4499V41.3999L55.76 42.8499H49.71V34.2799H55.51L56.96 35.7299V37.6499L56.19 38.4199L57.21 39.4499V39.4499ZM51.98 37.6699H54.32L54.69 37.2999V36.5199L54.41 36.2399H51.98V37.6599V37.6699ZM54.94 40.6099V39.9199L54.47 39.4499H51.97V40.8899H54.65L54.93 40.6099H54.94Z" fill="#41014A"/>
<path d="M44.26 58.8899V64.0599L42.56 65.7599H38.2L36.5 64.0599V58.8899L38.2 57.1899H42.56L44.26 58.8899ZM41.99 63.2099V59.7299L41.46 59.1999H39.29L38.76 59.7299V63.2099L39.29 63.7399H41.46L41.99 63.2099Z" fill="#41014A"/>
<path d="M67.8397 14.8399V18.2799L68.5197 18.9599H70.2097V21.4099H66.6997L64.7697 19.4799V14.8299H62.9297V12.3799H64.9497L65.3797 9.15991H67.8297V12.3799H70.2097V14.8299H67.8297L67.8397 14.8399Z" fill="#41014A"/>
</g>
<defs>
<clipPath id="clip0_251_1838">
<rect width="80.11" height="77.15" fill="white"/>
</clipPath>
</defs>
</svg>
